<?xml version="1.0" encoding="iso-8859-1"?>
<!-- Generator: Adobe Illustrator 19.0.0, SVG Export Plug-In . SVG Version: 6.00 Build 0)  -->
<svg version="1.1" id="Capa_1" xmlns="http://www.w3.org/2000/svg" xmlns:xlink="http://www.w3.org/1999/xlink" x="0px" y="0px"
	 viewBox="0 0 512 512" style="enable-background:new 0 0 512 512;" xml:space="preserve">
<path style="fill:#FFD664;" d="M242.039,424.678C235.52,422.893,231,416.969,231,410.21V296.034h-71.093
	c-5.388,0-10.362-2.89-13.031-7.57c-2.668-4.681-2.621-10.433,0.123-15.07L253.092,94.15c3.443-5.816,10.35-8.61,16.869-6.828
	C276.479,89.107,281,95.031,281,101.79v114.176h71.093c5.388,0,10.362,2.89,13.031,7.57c2.668,4.681,2.621,10.433-0.123,15.07
	L258.908,417.851C255.472,423.656,248.573,426.466,242.039,424.678z"/>
<path style="fill:#FF7560;" d="M68.974,271H15c-8.284,0-15-6.716-15-15c0-8.284,6.716-15,15-15h53.974c8.284,0,15,6.716,15,15
	C83.974,264.284,77.258,271,68.974,271z"/>
<path style="fill:#FE5947;" d="M497,271h-53.974c-8.284,0-15-6.716-15-15c0-8.284,6.716-15,15-15H497c8.284,0,15,6.716,15,15
	C512,264.284,505.284,271,497,271z"/>
<path style="fill:#FF7560;" d="M128.008,477.992c-7.177-4.138-9.641-13.31-5.503-20.487l26.987-46.807
	c4.14-7.177,13.313-9.641,20.487-5.502c7.177,4.138,9.641,13.31,5.503,20.487l-26.987,46.807
	C144.356,479.667,135.183,482.13,128.008,477.992z"/>
<g>
	<path style="fill:#FE5947;" d="M342.021,106.804c-7.177-4.138-9.641-13.31-5.503-20.487l26.987-46.807
		c4.14-7.178,13.313-9.641,20.487-5.502c7.177,4.138,9.641,13.31,5.503,20.487l-26.987,46.807
		C358.369,108.479,349.196,110.942,342.021,106.804z"/>
	<path style="fill:#FE5947;" d="M363.505,472.49l-26.987-46.807c-4.138-7.177-1.674-16.349,5.503-20.487
		c7.176-4.138,16.349-1.676,20.487,5.502l26.987,46.807c4.138,7.177,1.674,16.349-5.503,20.487
		C376.813,482.131,367.642,479.665,363.505,472.49z"/>
</g>
<path style="fill:#FF7560;" d="M149.492,101.302l-26.987-46.807c-4.138-7.177-1.674-16.349,5.503-20.487
	c7.176-4.139,16.349-1.675,20.487,5.502l26.987,46.807c4.138,7.177,1.674,16.349-5.503,20.487
	C162.8,110.943,153.629,108.477,149.492,101.302z"/>
<path style="fill:#FFBB54;" d="M365.124,223.536c-2.669-4.681-7.644-7.57-13.031-7.57H281V101.79
	c0-6.759-4.521-12.683-11.039-14.468c-5.01-1.37-10.241-0.029-13.961,3.3v330.756c1.122-1.004,2.111-2.181,2.908-3.528
	l106.093-179.245C367.745,233.969,367.792,228.217,365.124,223.536z"/>
<g>
</g>
<g>
</g>
<g>
</g>
<g>
</g>
<g>
</g>
<g>
</g>
<g>
</g>
<g>
</g>
<g>
</g>
<g>
</g>
<g>
</g>
<g>
</g>
<g>
</g>
<g>
</g>
<g>
</g>
</svg>
